<?xml version="1.0" encoding="UTF-8"?>
<svg xmlns="http://www.w3.org/2000/svg" viewBox="0 0 1024 1024">
  <defs>
    <linearGradient id="background" x1="0" y1="0" x2="1" y2="1">
      <stop offset="0" stop-color="#0A102A"/>
      <stop offset="0.58" stop-color="#22145B"/>
      <stop offset="1" stop-color="#35207A"/>
    </linearGradient>
    <linearGradient id="mark" x1="0.18" y1="0.12" x2="0.82" y2="0.9">
      <stop offset="0" stop-color="#C084FC"/>
      <stop offset="0.5" stop-color="#8B5CF6"/>
      <stop offset="1" stop-color="#22D3EE"/>
    </linearGradient>
    <radialGradient id="glow" cx="0.72" cy="0.72" r="0.72">
      <stop offset="0" stop-color="#22D3EE" stop-opacity="0.28"/>
      <stop offset="1" stop-color="#22D3EE" stop-opacity="0"/>
    </radialGradient>
    <filter id="shadow" x="-30%" y="-30%" width="160%" height="170%">
      <feGaussianBlur in="SourceAlpha" stdDeviation="22"/>
      <feOffset dy="20"/>
      <feComponentTransfer>
        <feFuncA type="linear" slope="0.46"/>
      </feComponentTransfer>
      <feMerge>
        <feMergeNode/>
        <feMergeNode in="SourceGraphic"/>
      </feMerge>
    </filter>
  </defs>

  <rect x="32" y="32" width="960" height="960" rx="224" fill="url(#background)"/>
  <rect x="32" y="32" width="960" height="960" rx="224" fill="url(#glow)"/>
  <rect x="54" y="54" width="916" height="916" rx="204" fill="none"
        stroke="#FFFFFF" stroke-opacity="0.08" stroke-width="4"/>

  <g fill="none" stroke="url(#mark)" stroke-width="34" stroke-linecap="round">
    <path d="M188 316 V214 Q188 176 226 176 H328"/>
    <path d="M696 176 H798 Q836 176 836 214 V316"/>
    <path d="M188 708 V810 Q188 848 226 848 H328"/>
    <path d="M696 848 H798 Q836 848 836 810 V708"/>
  </g>

  <g filter="url(#shadow)">
    <path fill="url(#mark)" fill-rule="evenodd"
          d="M512 238 L760 786 H625 L576 666 H448 L399 786 H264 Z
             M512 444 L478 562 H546 Z"/>
    <path d="M576 666 L694 786 H625 Z" fill="#22D3EE" opacity="0.88"/>
  </g>
</svg>
